<svg version="1.1" viewBox="0.0 0.0 960.0 720.0" fill="none" stroke="none" stroke-linecap="square" stroke-miterlimit="10" xmlns:xlink="http://www.w3.org/1999/xlink" xmlns="http://www.w3.org/2000/svg"><clipPath id="p.0"><path d="m0 0l960.0 0l0 720.0l-960.0 0l0 -720.0z" clip-rule="nonzero"/></clipPath><g clip-path="url(#p.0)"><path fill="#000000" fill-opacity="0.0" d="m0 0l960.0 0l0 720.0l-960.0 0z" fill-rule="evenodd"/><path fill="#000000" fill-opacity="0.0" d="m232.01575 343.04462l0 0c0 -57.06363 111.02634 -103.32283 247.98425 -103.32283l0 0c136.95795 0 247.98425 46.2592 247.98425 103.32283l0 0c0 57.06363 -111.026306 103.322845 -247.98425 103.322845l0 0c-136.95792 0 -247.98425 -46.259216 -247.98425 -103.322845z" fill-rule="evenodd"/><path stroke="#000000" stroke-width="12.0" stroke-linejoin="round" stroke-linecap="butt" d="m232.01575 343.04462l0 0c0 -57.06363 111.02634 -103.32283 247.98425 -103.32283l0 0c136.95795 0 247.98425 46.2592 247.98425 103.32283l0 0c0 57.06363 -111.026306 103.322845 -247.98425 103.322845l0 0c-136.95792 0 -247.98425 -46.259216 -247.98425 -103.322845z" fill-rule="evenodd"/><path fill="#000000" d="m384.56693 343.04462l0 0c0 -57.06363 42.726837 -103.32283 95.433075 -103.32283l0 0c25.310425 0 49.58423 10.885773 67.481384 30.262558c17.897156 19.3768 27.95166 45.65735 27.95166 73.06027l0 0c0 57.06363 -42.726807 103.322845 -95.433044 103.322845l0 0c-52.706238 0 -95.433075 -46.259216 -95.433075 -103.322845z" fill-rule="evenodd"/><path stroke="#000000" stroke-width="12.0" stroke-linejoin="round" stroke-linecap="butt" d="m384.56693 343.04462l0 0c0 -57.06363 42.726837 -103.32283 95.433075 -103.32283l0 0c25.310425 0 49.58423 10.885773 67.481384 30.262558c17.897156 19.3768 27.95166 45.65735 27.95166 73.06027l0 0c0 57.06363 -42.726807 103.322845 -95.433044 103.322845l0 0c-52.706238 0 -95.433075 -46.259216 -95.433075 -103.322845z" fill-rule="evenodd"/><path fill="#000000" fill-opacity="0.0" d="m182.93512 265.22382l0 0c57.113327 -68.21797 170.84814 -111.22705 295.24075 -111.645935c124.39261 -0.41889954 238.88077 41.82164 297.19632 109.65094l-295.3722 96.77118z" fill-rule="evenodd"/><path fill="#000000" fill-opacity="0.0" d="m182.93512 265.22382l0 0c57.113327 -68.21797 170.84814 -111.22705 295.24075 -111.645935c124.39261 -0.41889954 238.88077 41.82164 297.19632 109.65094" fill-rule="evenodd"/><path stroke="#000000" stroke-width="12.0" stroke-linejoin="round" stroke-linecap="butt" d="m182.93512 265.22382l0 0c57.113327 -68.21797 170.84814 -111.22705 295.24075 -111.645935c124.39261 -0.41889954 238.88077 41.82164 297.19632 109.65094" fill-rule="evenodd"/></g></svg>